<?xml version="1.0" standalone="no"?>
<!DOCTYPE svg PUBLIC "-//W3C//DTD SVG 20010904//EN"
 "http://www.w3.org/TR/2001/REC-SVG-20010904/DTD/svg10.dtd">
<svg version="1.0" xmlns="http://www.w3.org/2000/svg"
 width="180.000000pt" height="180.000000pt" viewBox="0 0 180.000000 180.000000"
 preserveAspectRatio="xMidYMid meet">

<g transform="translate(0.000000,180.000000) scale(0.100000,-0.100000)"
fill="#000000" stroke="none">
<path d="M324 1561 l109 -110 341 -3 c336 -3 342 -3 386 -27 134 -70 210 -188
210 -326 0 -208 -160 -355 -387 -355 l-83 0 0 -170 c0 -93 2 -170 4 -170 2 0
53 29 113 64 59 35 128 69 153 76 147 39 291 160 358 302 85 177 84 340 -4
517 -73 147 -244 276 -399 301 -33 6 -251 10 -485 10 l-425 0 109 -109z"/>
<path d="M440 670 l0 -542 43 24 c23 13 72 42 110 63 l67 39 0 362 0 362 200
4 200 3 32 33 c27 27 33 40 33 77 0 37 -6 50 -33 77 l-32 33 -310 3 -310 3 0
-541z"/>
</g>
</svg>
